<?xml version="1.0" encoding="UTF-8" standalone="no"?>
<!DOCTYPE svg PUBLIC "-//W3C//DTD SVG 1.1//EN" "http://www.w3.org/Graphics/SVG/1.1/DTD/svg11.dtd">
<svg width="100%" height="100%" viewBox="0 0 1732 397" version="1.1" xmlns="http://www.w3.org/2000/svg" xmlns:xlink="http://www.w3.org/1999/xlink" xml:space="preserve" xmlns:serif="http://www.serif.com/" style="fill-rule:evenodd;clip-rule:evenodd;stroke-linejoin:round;stroke-miterlimit:2;">
    <g>
        <path d="M465.84,181.64C477.06,197.45 494.02,204.32 506.62,204.32C524.26,204.32 530.21,197.91 530.21,191.03C530.21,182.78 524.03,180.26 502.03,171.79L481.64,164C456.9,154.61 444.53,141.55 444.53,117.5C444.53,88.18 470.87,68.25 507.07,68.25C535.7,68.25 556.55,79.93 571.9,98.26L543.04,122.77C528.61,106.05 515.78,101.01 500.89,101.01C490.81,101.01 484.17,105.82 484.17,113.15C484.17,120.48 487.61,124.83 503.64,130.33L526.78,138.35C556.56,148.66 570.76,162.17 570.76,186.46C570.76,215.78 547.62,238 505.7,238C479.81,238 452.55,227.23 436.06,207.53L465.84,181.64Z" style="fill:white;fill-rule:nonzero;"/>
        <path d="M644.06,233.41C636.5,235.24 628.48,236.16 619.78,236.16C590.46,236.16 586.11,219.21 586.11,200.42L586.11,146.13L570.07,146.13L570.07,118.41L586.56,118.41L586.56,81.3L621.61,81.3L621.61,118.41L643.6,118.41L643.6,146.13L621.61,146.13L621.61,194.47C621.61,205.24 625.05,208.21 632.15,208.21C635.13,208.21 640.86,207.52 644.06,206.15L644.06,233.41Z" style="fill:white;fill-rule:nonzero;"/>
        <path d="M648.87,233.87L648.87,118.41L682.77,118.41L682.77,135.36C689.64,123.91 697.43,116.81 713.93,116.81C717.6,116.81 720.34,117.27 723.55,118.18L723.55,152.77C718.28,150.25 715.07,149.56 710.03,149.56C702.47,149.56 696.06,152.77 691.7,157.58C686.43,163.54 684.37,171.1 684.37,183.24L684.37,233.87L648.86,233.87L648.87,233.87Z" style="fill:white;fill-rule:nonzero;"/>
        <path d="M755.39,236.16C733.17,236.16 719.42,222.64 719.42,201.11C719.42,187.14 726.29,176.83 740.04,170.18C752.41,164.45 776.46,161.7 791.58,160.79L791.58,154.83C791.58,146.81 786.31,142 774.86,142C764.09,142 759.51,148.64 758.37,157.81L724.92,155.52C726.98,129.63 745.54,114.74 778.07,114.74C795.02,114.74 806.25,118.41 814.95,125.97C822.97,132.84 825.49,142.46 825.49,161.02L825.49,199.28C825.49,215.09 825.95,227.91 828.47,233.87L794.34,233.87C793.42,229.52 792.51,224.94 792.51,220.58C782.89,231.35 771.43,236.16 755.4,236.16L755.39,236.16ZM791.58,183.24C777.38,184.16 766.15,186.22 759.97,189.43C755.16,191.95 753.33,195.39 753.33,199.74C753.33,204.09 756.08,210.28 767.07,210.28C782.19,210.28 791.58,200.89 791.58,187.83L791.58,183.24Z" style="fill:white;fill-rule:nonzero;"/>
        <path d="M904.29,233.41C896.73,235.24 888.71,236.16 880.01,236.16C850.69,236.16 846.34,219.21 846.34,200.42L846.34,146.13L830.3,146.13L830.3,118.41L846.79,118.41L846.79,81.3L881.84,81.3L881.84,118.41L903.83,118.41L903.83,146.13L881.84,146.13L881.84,194.47C881.84,205.24 885.28,208.21 892.38,208.21C895.36,208.21 901.09,207.52 904.29,206.15L904.29,233.41Z" style="fill:white;fill-rule:nonzero;"/>
        <path d="M962.7,237.3C925.36,237.3 903.83,215.54 903.83,176.36C903.83,137.18 927.43,114.74 964.54,114.74C1001.65,114.74 1022.27,137.42 1022.27,177.51C1022.27,217.6 997.3,237.3 962.71,237.3L962.7,237.3ZM963.85,143.84C950.79,143.84 939.8,154.15 939.8,175.91C939.8,199.28 950.11,208.21 963.4,208.21C976.69,208.21 986.99,200.42 986.99,176.14C986.99,151.86 977.37,143.84 963.85,143.84Z" style="fill:white;fill-rule:nonzero;"/>
        <path d="M1148.94,233.87C1135.42,179.58 1130.15,157.59 1122.6,122.99C1114.58,157.58 1108.63,179.8 1093.05,233.87L1051.82,233.87L1011.96,72.14L1054.11,72.14C1064.19,119.33 1069.92,147.51 1077.25,185.53C1081.37,164.23 1084.58,148.88 1103.14,72.14L1142.31,72.14C1154.68,122.77 1164.07,163.54 1169.11,185.53C1172.55,164.45 1180.33,125.74 1191.56,72.14L1232.79,72.14L1190.18,233.87L1148.94,233.87Z" style="fill:white;fill-rule:nonzero;"/>
        <path d="M1327.16,205.46C1316.85,226.31 1300.36,237.76 1274.7,237.76C1236.67,237.76 1215.83,213.94 1215.83,175.45C1215.83,136.96 1238.51,114.74 1273.56,114.74C1314.79,114.74 1328.08,146.35 1328.08,186.9L1251.34,186.9C1253.17,201.79 1262.11,208.2 1274.94,208.2C1284.79,208.2 1292.35,203.62 1296.02,194.46L1327.17,205.46L1327.16,205.46ZM1292.34,162.85C1292.34,151.17 1285.47,141.55 1272.64,141.55C1259.81,141.55 1252.48,149.8 1251.56,162.85L1292.34,162.85Z" style="fill:white;fill-rule:nonzero;"/>
        <path d="M1366.56,236.16C1344.34,236.16 1330.59,222.64 1330.59,201.11C1330.59,187.14 1337.46,176.83 1351.21,170.18C1363.58,164.45 1387.63,161.7 1402.75,160.79L1402.75,154.83C1402.75,146.81 1397.48,142 1386.03,142C1375.26,142 1370.68,148.64 1369.54,157.81L1336.09,155.52C1338.15,129.63 1356.71,114.74 1389.24,114.74C1406.19,114.74 1417.42,118.41 1426.12,125.97C1434.14,132.84 1436.66,142.46 1436.66,161.02L1436.66,199.28C1436.66,215.09 1437.12,227.91 1439.64,233.87L1405.51,233.87C1404.59,229.52 1403.68,224.94 1403.68,220.58C1394.06,231.35 1382.6,236.16 1366.57,236.16L1366.56,236.16ZM1402.76,183.24C1388.56,184.16 1377.33,186.22 1371.15,189.43C1366.34,191.95 1364.51,195.39 1364.51,199.74C1364.51,204.09 1367.26,210.28 1378.25,210.28C1393.37,210.28 1402.76,200.89 1402.76,187.83L1402.76,183.24Z" style="fill:white;fill-rule:nonzero;"/>
        <path d="M1474.68,233.87L1434.59,118.41L1473.99,118.41C1483.61,149.34 1490.48,172.24 1497.36,198.82C1503.55,172.7 1510.19,149.34 1520.04,118.41L1557.15,118.41L1517.98,233.87L1474.68,233.87Z" style="fill:white;fill-rule:nonzero;"/>
        <path d="M1659.09,205.46C1648.78,226.31 1632.29,237.76 1606.63,237.76C1568.6,237.76 1547.76,213.94 1547.76,175.45C1547.76,136.96 1570.44,114.74 1605.49,114.74C1646.72,114.74 1660.01,146.35 1660.01,186.9L1583.27,186.9C1585.1,201.79 1594.04,208.2 1606.86,208.2C1616.71,208.2 1624.27,203.62 1627.94,194.46L1659.09,205.46ZM1624.27,162.85C1624.27,151.17 1617.4,141.55 1604.57,141.55C1591.74,141.55 1584.41,149.8 1583.49,162.85L1624.27,162.85Z" style="fill:white;fill-rule:nonzero;"/>
    </g>
    <g>
        <path d="M286.91,160.72C277.48,148.08 268.6,137.08 260.47,127.59C246.2,137.89 236.15,147.83 230.78,153.65C236.48,160.5 246.93,172.81 259.24,186.3C268.01,178.09 277.71,169.83 288.1,162.29C287.7,161.77 287.3,161.25 286.9,160.72L286.91,160.72Z" style="fill:rgb(37,99,235);fill-rule:nonzero;"/>
        <path d="M281.1,33.05C261.51,25.51 240.24,21.36 218.03,21.36C195.82,21.36 176.44,25.13 157.58,32.05C186.23,41.04 209.81,55.98 218.43,61.85C228.14,55.23 249.78,42.2 281.11,33.04L281.1,33.05Z" style="fill:rgb(37,99,235);fill-rule:nonzero;"/>
        <path d="M263.49,104.58C283.3,92.3 310.42,79.68 343.7,74.22C332.53,62.84 319.84,52.95 305.94,44.92C270.61,51.96 245.11,65.58 232.52,73.5C239.52,79.72 250.21,89.9 263.49,104.58Z" style="fill:rgb(37,99,235);fill-rule:nonzero;"/>
        <path d="M165.76,112.66C150.67,101.62 136.52,94.39 124.94,89.7C108.85,83.18 95.46,80.54 87.38,79.48C77.82,90.05 69.52,101.79 62.72,114.45C80.23,117.52 108.48,125.33 135.25,145.12C146.68,135.68 158.94,121.16 165.75,112.67L165.76,112.66Z" style="fill:rgb(37,99,235);fill-rule:nonzero;"/>
        <path d="M219.7,139.94C225.74,133.58 235.51,124.24 248.86,114.46C227.07,90.63 213.1,79.94 212.89,79.78C206.56,74.99 199.92,70.62 193,66.72C178.01,58.27 155.58,47.67 132.04,43.83C121.55,49.72 111.71,56.65 102.68,64.49C110.55,66.24 120.03,68.95 130.58,73.16C154.41,82.68 188.1,101.85 219.71,139.94L219.7,139.94Z" style="fill:rgb(37,99,235);fill-rule:nonzero;"/>
        <path d="M136.81,219.25C146.86,212.01 156.3,203.98 164.85,195.96C152.54,183.09 139.38,170.37 127.69,161.26C100.28,139.91 70.13,133.07 54.96,130.89C50.58,141.57 47.22,152.77 45,164.38C62.64,168.89 78.33,175.13 92.59,183.27C108.98,192.63 123.56,204.49 136.81,219.25Z" style="fill:rgb(0,193,207);fill-rule:nonzero;"/>
        <path d="M256.61,271.52C263.33,263.12 275.11,249.17 287.03,238.74C277.66,230.52 267.95,220.95 258.75,211.36C245.41,225.14 235.31,237.62 230.09,244.36C238.84,254.88 247.76,263.85 256.61,271.52Z" style="fill:rgb(111,77,216);fill-rule:nonzero;"/>
        <path d="M300.9,150.29C301.47,151.05 302.05,151.8 302.62,152.55C303.15,152.22 303.68,151.9 304.21,151.57C328.11,137.13 356.33,128.37 377.75,123.31C372.21,111.43 365.38,100.26 357.43,89.99C323.19,93.63 295.29,105.8 275.15,117.91C283.12,127.29 291.75,138.05 300.89,150.3L300.9,150.29Z" style="fill:rgb(37,99,235);fill-rule:nonzero;"/>
        <path d="M341.9,190.29C349.91,185.1 369.96,173.11 391.68,167.95C390.03,158.25 387.59,148.82 384.42,139.73C364.17,144.36 336.65,152.54 313.96,166.07C322.6,175.43 331.84,183.47 341.89,190.29L341.9,190.29Z" style="fill:rgb(0,193,207);fill-rule:nonzero;"/>
        <path d="M149.14,234.32C158.56,246.94 167.43,257.94 175.55,267.42C189.89,257.08 199.91,247.18 205.26,241.4C199.56,234.55 189.11,222.24 176.8,208.75C168.03,216.96 158.33,225.22 147.94,232.76C148.34,233.28 148.74,233.79 149.13,234.33L149.14,234.32Z" style="fill:rgb(111,77,216);fill-rule:nonzero;"/>
        <path d="M205.95,150.69C197.15,140.13 188.21,131.16 179.41,123.55C172.68,131.96 160.91,145.88 149.01,156.31C158.38,164.53 168.1,174.1 177.3,183.7C190.64,169.92 200.73,157.45 205.95,150.7L205.95,150.69Z" style="fill:rgb(37,99,235);fill-rule:nonzero;"/>
        <path d="M218.95,229.99C218.95,229.99 219.01,230.07 219.04,230.12C225.06,222.5 234.62,211.03 246.76,198.56C234.02,184.64 223.28,171.95 217.38,164.85L217.09,165.06C217.09,165.06 217.03,164.98 217,164.93C210.98,172.55 201.42,184.02 189.28,196.49C202.02,210.41 212.76,223.1 218.66,230.2L218.95,229.99Z" style="fill:rgb(0,193,207);fill-rule:nonzero;"/>
        <path d="M299.23,175.79C289.19,183.03 279.75,191.06 271.2,199.09C283.51,211.95 296.66,224.67 308.36,233.78C335.64,255.03 365.88,261.92 381.1,264.12C385.48,253.44 388.83,242.25 391.05,230.66C373.41,226.15 357.72,219.91 343.46,211.77C327.08,202.42 312.49,190.56 299.24,175.79L299.23,175.79Z" style="fill:rgb(0,193,207);fill-rule:nonzero;"/>
        <path d="M216.34,255.11C210.3,261.47 200.53,270.81 187.18,280.59C208.97,304.42 222.94,315.11 223.15,315.27C229.49,320.06 236.13,324.44 243.05,328.34C258.04,336.78 280.46,347.38 303.99,351.22C314.48,345.33 324.32,338.4 333.35,330.56C325.48,328.81 316,326.1 305.45,321.89C281.62,312.37 247.93,293.2 216.32,255.11L216.34,255.11Z" style="fill:rgb(111,77,216);fill-rule:nonzero;"/>
        <path d="M270.27,282.4C303.81,306.9 334.49,313.7 348.65,315.58C358.21,305.01 366.51,293.27 373.31,280.61C355.8,277.54 327.55,269.73 300.78,249.94C289.33,259.4 277.06,273.92 270.26,282.41L270.27,282.4Z" style="fill:rgb(111,77,216);fill-rule:nonzero;"/>
        <path d="M393.76,185.41C380.43,188.88 367.59,195.37 358.99,200.33C369.58,205.67 381.02,209.94 393.47,213.26C393.93,208.08 394.18,202.83 394.18,197.53C394.18,193.46 394.03,189.42 393.76,185.42L393.76,185.41Z" style="fill:rgb(33,70,170);fill-rule:nonzero;"/>
        <path d="M42.58,181.79C42.12,186.97 41.87,192.22 41.87,197.52C41.87,201.59 42.02,205.63 42.29,209.63C55.62,206.16 68.46,199.67 77.06,194.71C66.47,189.37 55.03,185.1 42.58,181.78L42.58,181.79Z" style="fill:rgb(33,70,170);fill-rule:nonzero;"/>
        <path d="M94.15,204.75C86.14,209.94 66.09,221.93 44.37,227.09C46.02,236.79 48.46,246.22 51.63,255.31C71.88,250.68 99.4,242.5 122.09,228.97C113.45,219.61 104.21,211.57 94.16,204.75L94.15,204.75Z" style="fill:rgb(0,193,207);fill-rule:nonzero;"/>
        <path d="M154.95,362C174.54,369.54 195.81,373.69 218.02,373.69C240.23,373.69 259.61,369.92 278.47,363C249.82,354.01 226.24,339.07 217.63,333.2C207.92,339.82 186.28,352.85 154.95,362.01L154.95,362Z" style="fill:rgb(58,42,150);fill-rule:nonzero;"/>
        <path d="M135.15,244.76C134.58,244 134,243.25 133.43,242.5C132.9,242.83 132.37,243.15 131.84,243.48C107.94,257.92 79.72,266.68 58.3,271.74C63.85,283.63 70.68,294.79 78.62,305.07C112.11,301.52 139.76,289.86 160.88,277.12C152.92,267.74 144.29,256.99 135.16,244.76L135.15,244.76Z" style="fill:rgb(111,77,216);fill-rule:nonzero;"/>
        <path d="M172.55,290.47C152.74,302.75 125.62,315.37 92.34,320.83C103.51,332.21 116.2,342.1 130.1,350.13C165.43,343.09 190.93,329.47 203.52,321.55C196.52,315.33 185.83,305.15 172.55,290.47Z" style="fill:rgb(111,77,216);fill-rule:nonzero;"/>
    </g>
    <g>
        <path d="M462.68,327C457.6,327 453.06,325.82 449.04,323.46C445.02,321.1 441.86,317.71 439.54,313.28C437.22,308.85 436.06,303.53 436.06,297.31C436.06,291.09 437.22,285.72 439.54,281.28C441.86,276.84 445.02,273.44 449.04,271.08C453.05,268.72 457.6,267.54 462.68,267.54C467.76,267.54 472.26,268.72 476.26,271.08C480.26,273.44 483.42,276.84 485.74,281.28C488.06,285.72 489.22,291.07 489.22,297.31C489.22,303.55 488.06,308.86 485.74,313.3C483.42,317.74 480.26,321.14 476.26,323.48C472.26,325.82 467.73,327 462.68,327ZM462.68,317.71C465.81,317.71 468.59,316.93 471.02,315.36C473.44,313.79 475.34,311.49 476.71,308.44C478.08,305.39 478.77,301.69 478.77,297.31C478.77,292.93 478.08,289.14 476.71,286.1C475.34,283.06 473.44,280.75 471.02,279.18C468.6,277.61 465.82,276.83 462.68,276.83C459.54,276.83 456.72,277.62 454.29,279.2C451.86,280.78 449.94,283.09 448.56,286.14C447.18,289.19 446.48,292.91 446.48,297.31C446.48,301.71 447.17,305.39 448.56,308.42C449.95,311.45 451.86,313.76 454.29,315.34C456.72,316.92 459.52,317.71 462.68,317.71Z" style="fill:white;fill-rule:nonzero;"/>
        <path d="M502.23,326.22L502.23,268.32L523.87,268.32C528.3,268.32 532.03,269.1 535.06,270.65C538.09,272.2 540.38,274.37 541.94,277.16C543.49,279.95 544.27,283.18 544.27,286.85C544.27,290.52 543.49,293.73 541.92,296.45C540.35,299.17 538.04,301.27 534.98,302.74C531.92,304.22 528.17,304.95 523.71,304.95L508.24,304.95L508.24,296.36L522.35,296.36C524.97,296.36 527.1,295.99 528.76,295.25C530.42,294.51 531.65,293.43 532.45,292C533.25,290.58 533.66,288.85 533.66,286.83C533.66,284.81 533.26,282.99 532.45,281.53C531.65,280.07 530.41,278.95 528.74,278.17C527.07,277.39 524.91,277 522.27,277L512.59,277L512.59,326.19L502.22,326.19L502.23,326.22ZM534.8,326.22L520.73,299.95L532.08,299.95L546.42,326.22L534.8,326.22Z" style="fill:white;fill-rule:nonzero;"/>
        <path d="M582,327C576.92,327 572.39,325.82 568.4,323.46C564.41,321.1 561.26,317.71 558.96,313.28C556.65,308.85 555.5,303.53 555.5,297.31C555.5,291.09 556.66,285.72 558.98,281.28C561.3,276.84 564.46,273.44 568.46,271.08C572.46,268.72 576.98,267.54 582,267.54C585.16,267.54 588.12,267.99 590.88,268.88C593.64,269.77 596.1,271.08 598.26,272.8C600.42,274.52 602.2,276.63 603.6,279.11C605,281.6 605.93,284.42 606.4,287.58L595.95,287.58C595.61,285.84 595.04,284.32 594.22,282.99C593.4,281.67 592.39,280.55 591.17,279.63C589.95,278.71 588.58,278.01 587.05,277.53C585.52,277.05 583.89,276.81 582.15,276.81C578.99,276.81 576.18,277.61 573.74,279.2C571.29,280.79 569.37,283.11 567.99,286.16C566.61,289.21 565.91,292.91 565.91,297.29C565.91,301.67 566.61,305.45 568.01,308.48C569.41,311.51 571.33,313.8 573.78,315.36C576.23,316.91 579.01,317.69 582.11,317.69C583.85,317.69 585.48,317.45 587.01,316.97C588.54,316.49 589.92,315.79 591.15,314.87C592.38,313.95 593.41,312.82 594.24,311.49C595.07,310.16 595.64,308.63 595.95,306.92L606.44,306.92C606.05,309.69 605.2,312.29 603.89,314.71C602.58,317.13 600.87,319.26 598.74,321.1C596.62,322.94 594.15,324.38 591.34,325.41C588.53,326.45 585.41,326.96 581.99,326.96L582,327Z" style="fill:white;fill-rule:nonzero;"/>
        <path d="M619.15,326.22L619.15,268.32L629.52,268.32L629.52,292.26L656.45,292.26L656.45,268.32L666.82,268.32L666.82,326.22L656.45,326.22L656.45,301L629.52,301L629.52,326.22L619.15,326.22Z" style="fill:white;fill-rule:nonzero;"/>
        <path d="M681.67,326.22L681.67,268.32L719.28,268.32L719.28,277.06L692.04,277.06L692.04,292.68L717.26,292.68L717.26,301.31L692.04,301.31L692.04,317.47L719.43,317.47L719.43,326.21L681.66,326.21L681.67,326.22Z" style="fill:white;fill-rule:nonzero;"/>
        <path d="M753.35,327.11C748.87,327.11 744.98,326.41 741.67,325.01C738.37,323.61 735.78,321.58 733.92,318.91C732.05,316.24 731.05,313 730.89,309.2L741.11,309.2C741.29,311.22 741.93,312.91 743.01,314.25C744.09,315.59 745.54,316.6 747.32,317.26C749.1,317.92 751.09,318.25 753.27,318.25C755.45,318.25 757.56,317.9 759.31,317.2C761.06,316.5 762.42,315.52 763.41,314.27C764.39,313.01 764.89,311.56 764.89,309.9C764.89,308.4 764.46,307.15 763.59,306.17C762.72,305.19 761.5,304.35 759.94,303.66C758.37,302.97 756.54,302.37 754.44,301.85L747.87,300.14C743.03,298.9 739.25,297.02 736.54,294.51C733.83,292 732.48,288.69 732.48,284.6C732.48,281.18 733.4,278.19 735.24,275.62C737.08,273.05 739.59,271.07 742.78,269.65C745.97,268.24 749.58,267.53 753.62,267.53C757.66,267.53 761.35,268.24 764.46,269.67C767.57,271.1 770,273.06 771.75,275.58C773.5,278.09 774.41,280.96 774.49,284.17L764.43,284.17C764.17,281.68 763.06,279.76 761.11,278.4C759.16,277.04 756.61,276.36 753.47,276.36C751.29,276.36 749.42,276.69 747.86,277.35C746.29,278.01 745.09,278.91 744.25,280.05C743.41,281.19 742.99,282.5 742.99,283.98C742.99,285.59 743.49,286.91 744.49,287.94C745.49,288.98 746.74,289.81 748.26,290.43C749.78,291.05 751.31,291.56 752.87,291.95L758.27,293.35C760.42,293.87 762.5,294.55 764.53,295.41C766.55,296.26 768.37,297.35 769.99,298.65C771.61,299.96 772.9,301.54 773.86,303.41C774.82,305.28 775.3,307.46 775.3,309.98C775.3,313.37 774.43,316.36 772.7,318.94C770.97,321.52 768.47,323.53 765.2,324.96C761.94,326.4 758,327.12 753.39,327.12L753.35,327.11Z" style="fill:white;fill-rule:nonzero;"/>
        <path d="M784.83,277.06L784.83,268.32L830.91,268.32L830.91,277.06L813.07,277.06L813.07,326.21L802.7,326.21L802.7,277.06L784.83,277.06Z" style="fill:white;fill-rule:nonzero;"/>
        <path d="M843.15,326.22L843.15,268.32L864.79,268.32C869.22,268.32 872.95,269.1 875.98,270.65C879.01,272.2 881.3,274.37 882.86,277.16C884.41,279.95 885.19,283.18 885.19,286.85C885.19,290.52 884.41,293.73 882.84,296.45C881.27,299.17 878.96,301.27 875.9,302.74C872.84,304.22 869.09,304.95 864.63,304.95L849.16,304.95L849.16,296.36L863.27,296.36C865.89,296.36 868.02,295.99 869.68,295.25C871.34,294.51 872.57,293.43 873.37,292C874.17,290.58 874.58,288.85 874.58,286.83C874.58,284.81 874.18,282.99 873.37,281.53C872.57,280.07 871.33,278.95 869.66,278.17C867.99,277.39 865.83,277 863.19,277L853.51,277L853.51,326.19L843.14,326.19L843.15,326.22ZM875.71,326.22L861.64,299.95L872.99,299.95L887.33,326.22L875.71,326.22Z" style="fill:white;fill-rule:nonzero;"/>
        <path d="M894.36,326.22L914.57,268.32L927.74,268.32L948.41,326.22L937.02,326.22L926.72,296.14C925.71,293.03 924.66,289.51 923.57,285.59C922.48,281.67 921.28,277.2 919.96,272.2L922.14,272.2C920.84,277.25 919.67,281.75 918.62,285.7C917.57,289.65 916.58,293.13 915.65,296.13L905.7,326.21L894.35,326.21L894.36,326.22ZM906.13,311.88L906.13,303.53L936.63,303.53L936.63,311.88L906.13,311.88Z" style="fill:white;fill-rule:nonzero;"/>
        <path d="M949.77,277.06L949.77,268.32L995.85,268.32L995.85,277.06L978.01,277.06L978.01,326.21L967.64,326.21L967.64,277.06L949.77,277.06Z" style="fill:white;fill-rule:nonzero;"/>
        <rect x="1008.09" y="268.32" width="10.37" height="57.9" style="fill:white;fill-rule:nonzero;"/>
        <path d="M1058.09,327C1053.01,327 1048.47,325.82 1044.45,323.46C1040.43,321.1 1037.27,317.71 1034.95,313.28C1032.63,308.85 1031.47,303.53 1031.47,297.31C1031.47,291.09 1032.63,285.72 1034.95,281.28C1037.27,276.84 1040.43,273.44 1044.45,271.08C1048.46,268.72 1053.01,267.54 1058.09,267.54C1063.17,267.54 1067.67,268.72 1071.67,271.08C1075.67,273.44 1078.83,276.84 1081.15,281.28C1083.47,285.72 1084.63,291.07 1084.63,297.31C1084.63,303.55 1083.47,308.86 1081.15,313.3C1078.83,317.74 1075.67,321.14 1071.67,323.48C1067.67,325.82 1063.14,327 1058.09,327ZM1058.09,317.71C1061.22,317.71 1064,316.93 1066.43,315.36C1068.85,313.79 1070.75,311.49 1072.12,308.44C1073.49,305.39 1074.18,301.69 1074.18,297.31C1074.18,292.93 1073.49,289.14 1072.12,286.1C1070.75,283.06 1068.85,280.75 1066.43,279.18C1064.01,277.61 1061.23,276.83 1058.09,276.83C1054.95,276.83 1052.13,277.62 1049.7,279.2C1047.27,280.78 1045.35,283.09 1043.97,286.14C1042.59,289.19 1041.89,292.91 1041.89,297.31C1041.89,301.71 1042.58,305.39 1043.97,308.42C1045.36,311.45 1047.27,313.76 1049.7,315.34C1052.13,316.92 1054.93,317.71 1058.09,317.71Z" style="fill:white;fill-rule:nonzero;"/>
        <path d="M1097.65,326.22L1097.65,268.32L1109.38,268.32L1129.39,300.22C1130.22,301.54 1131.1,303.04 1132.03,304.71C1132.96,306.38 1133.93,308.25 1134.94,310.31C1135.95,312.37 1136.95,314.66 1137.93,317.17L1136.76,317.17C1136.58,314.99 1136.42,312.76 1136.27,310.47C1136.12,308.18 1136.02,306 1135.96,303.94C1135.9,301.88 1135.86,300.14 1135.86,298.71L1135.86,268.32L1146.39,268.32L1146.39,326.22L1134.62,326.22L1116.55,297.5C1115.41,295.66 1114.34,293.85 1113.33,292.06C1112.32,290.27 1111.23,288.25 1110.07,286C1108.9,283.75 1107.49,281.03 1105.84,277.84L1107.32,277.84C1107.48,280.66 1107.62,283.34 1107.75,285.86C1107.88,288.38 1107.99,290.65 1108.08,292.64C1108.17,294.64 1108.22,296.24 1108.22,297.46L1108.22,326.21L1097.65,326.21L1097.65,326.22Z" style="fill:white;fill-rule:nonzero;"/>
        <path d="M1216.32,326.22L1216.32,268.32L1237.96,268.32C1242.39,268.32 1246.12,269.15 1249.15,270.81C1252.18,272.47 1254.47,274.74 1256.03,277.63C1257.58,280.52 1258.36,283.8 1258.36,287.48C1258.36,291.16 1257.58,294.47 1256.01,297.35C1254.44,300.23 1252.13,302.49 1249.07,304.15C1246.01,305.81 1242.26,306.64 1237.8,306.64L1223.46,306.64L1223.46,298.09L1236.44,298.09C1239.06,298.09 1241.2,297.64 1242.87,296.73C1244.54,295.82 1245.77,294.57 1246.56,292.96C1247.35,291.35 1247.75,289.53 1247.75,287.48C1247.75,285.43 1247.35,283.62 1246.56,282.04C1245.77,280.46 1244.53,279.23 1242.85,278.35C1241.17,277.47 1239,277.03 1236.36,277.03L1226.68,277.03L1226.68,326.22L1216.31,326.22L1216.32,326.22Z" style="fill:white;fill-rule:nonzero;"/>
        <path d="M1270.83,326.22L1270.83,268.32L1281.2,268.32L1281.2,317.47L1306.77,317.47L1306.77,326.21L1270.83,326.21L1270.83,326.22Z" style="fill:white;fill-rule:nonzero;"/>
        <path d="M1315.13,326.22L1335.34,268.32L1348.51,268.32L1369.18,326.22L1357.79,326.22L1347.49,296.14C1346.48,293.03 1345.43,289.51 1344.34,285.59C1343.25,281.67 1342.05,277.2 1340.73,272.2L1342.91,272.2C1341.61,277.25 1340.44,281.75 1339.39,285.7C1338.34,289.65 1337.35,293.13 1336.42,296.13L1326.47,326.21L1315.12,326.21L1315.13,326.22ZM1326.9,311.88L1326.9,303.53L1357.4,303.53L1357.4,311.88L1326.9,311.88Z" style="fill:white;fill-rule:nonzero;"/>
        <path d="M1370.54,277.06L1370.54,268.32L1416.62,268.32L1416.62,277.06L1398.78,277.06L1398.78,326.21L1388.41,326.21L1388.41,277.06L1370.54,277.06Z" style="fill:white;fill-rule:nonzero;"/>
        <path d="M1428.86,326.22L1428.86,268.32L1465.93,268.32L1465.93,277.06L1439.24,277.06L1439.24,294.43L1463.33,294.43L1463.33,303.06L1439.24,303.06L1439.24,326.22L1428.86,326.22Z" style="fill:white;fill-rule:nonzero;"/>
        <path d="M1503.61,327C1498.53,327 1493.99,325.82 1489.97,323.46C1485.95,321.1 1482.79,317.71 1480.47,313.28C1478.15,308.85 1476.99,303.53 1476.99,297.31C1476.99,291.09 1478.15,285.72 1480.47,281.28C1482.79,276.84 1485.95,273.44 1489.97,271.08C1493.98,268.72 1498.53,267.54 1503.61,267.54C1508.69,267.54 1513.19,268.72 1517.19,271.08C1521.19,273.44 1524.35,276.84 1526.67,281.28C1528.99,285.72 1530.15,291.07 1530.15,297.31C1530.15,303.55 1528.99,308.86 1526.67,313.3C1524.35,317.74 1521.19,321.14 1517.19,323.48C1513.19,325.82 1508.66,327 1503.61,327ZM1503.61,317.71C1506.74,317.71 1509.52,316.93 1511.95,315.36C1514.37,313.79 1516.27,311.49 1517.64,308.44C1519.01,305.39 1519.7,301.69 1519.7,297.31C1519.7,292.93 1519.01,289.14 1517.64,286.1C1516.27,283.06 1514.37,280.75 1511.95,279.18C1509.53,277.61 1506.75,276.83 1503.61,276.83C1500.47,276.83 1497.65,277.62 1495.22,279.2C1492.79,280.78 1490.87,283.09 1489.49,286.14C1488.11,289.19 1487.41,292.91 1487.41,297.31C1487.41,301.71 1488.1,305.39 1489.49,308.42C1490.88,311.45 1492.79,313.76 1495.22,315.34C1497.65,316.92 1500.45,317.71 1503.61,317.71Z" style="fill:white;fill-rule:nonzero;"/>
        <path d="M1543.17,326.22L1543.17,268.32L1564.81,268.32C1569.24,268.32 1572.97,269.1 1576,270.65C1579.03,272.2 1581.32,274.37 1582.88,277.16C1584.43,279.95 1585.21,283.18 1585.21,286.85C1585.21,290.52 1584.43,293.73 1582.86,296.45C1581.29,299.17 1578.98,301.27 1575.92,302.74C1572.86,304.22 1569.11,304.95 1564.65,304.95L1549.18,304.95L1549.18,296.36L1563.29,296.36C1565.91,296.36 1568.04,295.99 1569.7,295.25C1571.36,294.51 1572.59,293.43 1573.39,292C1574.19,290.58 1574.6,288.85 1574.6,286.83C1574.6,284.81 1574.2,282.99 1573.39,281.53C1572.59,280.07 1571.35,278.95 1569.68,278.17C1568.01,277.39 1565.85,277 1563.21,277L1553.53,277L1553.53,326.19L1543.16,326.19L1543.17,326.22ZM1575.73,326.22L1561.66,299.95L1573.01,299.95L1587.35,326.22L1575.73,326.22Z" style="fill:white;fill-rule:nonzero;"/>
        <path d="M1598.27,326.22L1598.27,268.32L1613.89,268.32L1624.89,298.2C1625.28,299.31 1625.71,300.75 1626.19,302.49C1626.67,304.24 1627.16,306.12 1627.67,308.14C1628.18,310.16 1628.65,312.14 1629.11,314.07C1629.56,316 1629.94,317.7 1630.26,319.18L1628.16,319.18C1628.47,317.73 1628.85,316.05 1629.31,314.15C1629.76,312.25 1630.24,310.28 1630.75,308.24C1631.26,306.21 1631.75,304.31 1632.23,302.55C1632.71,300.79 1633.13,299.34 1633.49,298.2L1644.37,268.32L1660.03,268.32L1660.03,326.22L1649.69,326.22L1649.69,297C1649.69,295.76 1649.7,294.25 1649.73,292.49C1649.76,290.73 1649.79,288.84 1649.85,286.82C1649.9,284.8 1649.95,282.76 1650.01,280.7C1650.06,278.64 1650.09,276.68 1650.09,274.81L1650.83,274.81C1650.31,276.86 1649.75,278.95 1649.14,281.09C1648.53,283.23 1647.93,285.3 1647.33,287.31C1646.73,289.32 1646.17,291.16 1645.64,292.85C1645.11,294.53 1644.65,295.92 1644.26,297.01L1633.57,326.23L1624.75,326.23L1613.91,297.01C1613.52,295.92 1613.06,294.56 1612.53,292.91C1612,291.27 1611.43,289.45 1610.82,287.45C1610.21,285.46 1609.6,283.38 1608.99,281.21C1608.38,279.05 1607.78,276.92 1607.18,274.82L1608.03,274.82C1608.06,276.56 1608.09,278.44 1608.15,280.47C1608.2,282.5 1608.25,284.54 1608.29,286.59C1608.33,288.64 1608.37,290.56 1608.41,292.36C1608.45,294.16 1608.47,295.71 1608.47,297L1608.47,326.22L1598.27,326.22Z" style="fill:white;fill-rule:nonzero;"/>
    </g>
</svg>
