<?xml version="1.0" encoding="UTF-8" standalone="no"?>
<!-- Created with Inkscape (http://www.inkscape.org/) -->

<svg
   version="1.1"
   id="svg2"
   xml:space="preserve"
   width="103.10112"
   height="96.443573"
   viewBox="0 0 103.10112 96.443573"
   sodipodi:docname="logo.svg"
   inkscape:version="1.1.1 (3bf5ae0d25, 2021-09-20)"
   xmlns:inkscape="http://www.inkscape.org/namespaces/inkscape"
   xmlns:sodipodi="http://sodipodi.sourceforge.net/DTD/sodipodi-0.dtd"
   xmlns="http://www.w3.org/2000/svg"
   xmlns:svg="http://www.w3.org/2000/svg"><defs
     id="defs6" /><sodipodi:namedview
     id="namedview4"
     pagecolor="#ffffff"
     bordercolor="#666666"
     borderopacity="1.0"
     inkscape:pageshadow="2"
     inkscape:pageopacity="0.0"
     inkscape:pagecheckerboard="0"
     showgrid="false"
     inkscape:zoom="4.3481579"
     inkscape:cx="196.52"
     inkscape:cy="48.296315"
     inkscape:window-width="2610"
     inkscape:window-height="2134"
     inkscape:window-x="1254"
     inkscape:window-y="24"
     inkscape:window-maximized="1"
     inkscape:current-layer="g8" /><g
     id="g8"
     inkscape:groupmode="layer"
     inkscape:label="ink_ext_XXXXXX"
     transform="matrix(1.3333333,0,0,-1.3333333,0,96.443703)"><g
       id="g10"
       transform="scale(0.1)"><path
         d="m 133.852,353.117 c 0,-36.965 -29.965,-66.926 -66.9262,-66.926 C 29.9648,286.191 0,316.152 0,353.117 c 0,36.961 29.9648,66.926 66.9258,66.926 36.9612,0 66.9262,-29.965 66.9262,-66.926"
         style="fill:#f46d2d;fill-opacity:1;fill-rule:nonzero;stroke:none"
         id="path22" /><path
         d="m 181.102,348.188 c 0,-8.461 -6.856,-15.321 -15.317,-15.321 -8.461,0 -15.32,6.86 -15.32,15.321 0,8.457 6.859,15.316 15.32,15.316 8.461,0 15.317,-6.859 15.317,-15.316"
         style="fill:#f46d2d;fill-opacity:1;fill-rule:nonzero;stroke:none"
         id="path24" /><path
         d="m 649.457,601.336 c -30.41,21.008 -38.031,62.695 -17.019,93.102 21.007,30.41 62.695,38.031 93.105,17.019 30.406,-21.008 38.027,-62.695 17.016,-93.105 -21.008,-30.407 -62.696,-38.028 -93.102,-17.016"
         style="fill:#f46d2d;fill-opacity:1;fill-rule:nonzero;stroke:none"
         id="path26" /><path
         d="m 618.539,565.262 c -6.961,4.808 -8.703,14.351 -3.894,21.308 4.808,6.961 14.347,8.707 21.308,3.899 6.961,-4.813 8.707,-14.352 3.899,-21.313 -4.809,-6.961 -14.352,-8.703 -21.313,-3.894"
         style="fill:#f46d2d;fill-opacity:1;fill-rule:nonzero;stroke:none"
         id="path28" /><path
         d="m 661.141,116.289 c 27.261,24.957 69.593,23.094 94.554,-4.172 24.957,-27.2615 23.094,-69.5936 -4.168,-94.5545 -27.261,-24.95703 -69.597,-23.08984 -94.558,4.1719 -24.957,27.2617 -23.09,69.5937 4.172,94.5546"
         style="fill:#f46d2d;fill-opacity:1;fill-rule:nonzero;stroke:none"
         id="path30" /><path
         d="m 632.867,154.469 c 6.242,5.711 15.93,5.285 21.645,-0.953 5.711,-6.243 5.285,-15.93 -0.957,-21.645 -6.239,-5.711 -15.926,-5.285 -21.641,0.953 -5.715,6.242 -5.285,15.934 0.953,21.645"
         style="fill:#f46d2d;fill-opacity:1;fill-rule:nonzero;stroke:none"
         id="path32" /><path
         d="m 698.008,353.117 c 0,-136.304 -110.496,-246.797 -246.797,-246.797 -136.305,0 -246.797,110.493 -246.797,246.797 0,136.301 110.492,246.797 246.797,246.797 136.301,0 246.797,-110.496 246.797,-246.797"
         style="fill:#f14c24;fill-opacity:1;fill-rule:nonzero;stroke:none"
         id="path34" /><path
         d="m 451.211,329.602 c -25.359,0 -45.91,20.554 -45.91,45.91 0,25.355 20.551,45.91 45.91,45.91 25.355,0 45.906,-20.555 45.906,-45.91 0,-25.356 -20.551,-45.91 -45.906,-45.91 z M 621.996,280.219 488.914,510.727 c -8.379,14.511 -23.043,21.765 -37.703,21.765 -14.664,0 -29.324,-7.254 -37.707,-21.765 L 280.422,280.219 c -5.586,-9.676 -6.981,-20.156 -5.117,-29.828 5.05,-26.254 35.027,-39.426 58.875,-27.344 l 93.812,47.516 c 7.297,3.695 15.258,5.546 23.219,5.546 7.957,0 15.918,-1.851 23.215,-5.546 l 93.812,-47.516 c 8.946,-4.531 18.75,-5.512 27.778,-3.582 15.05,3.219 27.945,14.515 31.101,30.926 0.93,4.836 1.047,9.871 0.231,14.91 -0.813,5.039 -2.559,10.078 -5.352,14.918"
         style="fill:#ffffff;fill-opacity:1;fill-rule:nonzero;stroke:none"
         id="path36" /></g></g></svg>
