<?xml version="1.0" encoding="UTF-8" standalone="no"?>
<!DOCTYPE svg PUBLIC "-//W3C//DTD SVG 1.1//EN" "http://www.w3.org/Graphics/SVG/1.1/DTD/svg11.dtd">
<svg width="100%" height="100%" viewBox="0 0 579 579" version="1.1" xmlns="http://www.w3.org/2000/svg" xmlns:xlink="http://www.w3.org/1999/xlink" xml:space="preserve" xmlns:serif="http://www.serif.com/" style="fill-rule:evenodd;clip-rule:evenodd;stroke-linejoin:round;stroke-miterlimit:2;">
    <g transform="matrix(1,0,0,1,-249.78094,-216.841991)">
        <g transform="matrix(1,0,0,1,-1526,-2580.701409)">
            <g transform="matrix(1.586728,-0.011504,0.011504,1.586728,1301.081396,1405.547437)">
                <path d="M398.533,1098.12C376.787,1116.045 350.935,1129.675 315.225,1134.296C308.5,1119.353 303.826,1103.291 301.561,1086.47C323.876,1082.137 342.127,1074.063 357.993,1063.627C372.646,1053.989 385.266,1042.335 397.176,1029.75C411.421,1039.309 423.742,1050.172 435.051,1061.591C423.536,1074.652 411.798,1087.185 398.533,1098.12Z" style="fill:rgb(0,193,207);stroke:rgb(8,16,32);stroke-width:17.07px;"/>
            </g>
            <g transform="matrix(1.586728,-0.011504,0.011504,1.586728,1301.081396,1405.547437)">
                <path d="M398.533,1098.12C411.798,1087.185 423.536,1074.652 435.051,1061.591C448.672,1075.343 460.827,1089.901 473.114,1103.956C461.598,1117.166 450.014,1129.971 437.044,1141.293C424.501,1127.071 412.227,1112.219 398.533,1098.12Z" style="fill:rgb(111,77,216);stroke:rgb(8,16,32);stroke-width:17.07px;"/>
            </g>
            <g transform="matrix(1.586728,-0.011504,0.011504,1.586728,1301.081396,1405.547437)">
                <path d="M346.701,1181.607C333.783,1167.754 323.098,1151.792 315.225,1134.296C350.935,1129.675 376.787,1116.045 398.533,1098.12C412.227,1112.219 424.501,1127.071 437.044,1141.293C413.864,1161.525 386.257,1177.018 346.701,1181.607Z" style="fill:rgb(111,77,216);stroke:rgb(8,16,32);stroke-width:17.07px;"/>
            </g>
            <g transform="matrix(1.586728,-0.011504,0.011504,1.586728,1301.081396,1405.547437)">
                <path d="M301.561,1086.47C300.532,1078.824 300,1071.021 300,1063.095C300,1054.441 300.634,1045.934 301.857,1037.618C323.809,1043.972 342.099,1052.987 357.993,1063.627C342.127,1074.063 323.876,1082.137 301.561,1086.47Z" style="fill:rgb(33,70,170);stroke:rgb(8,16,32);stroke-width:17.07px;"/>
            </g>
            <g transform="matrix(1.586728,-0.011504,0.011504,1.586728,1301.081396,1405.547437)">
                <path d="M435.906,986.02C449.877,995.966 461.986,1007.158 473.178,1018.824C459.635,1032.799 447.472,1047.502 435.051,1061.591C423.742,1050.172 411.421,1039.309 397.176,1029.75C410.357,1015.823 422.669,1000.756 435.906,986.02Z" style="fill:rgb(0,135,247);stroke:rgb(8,16,32);stroke-width:17.07px;"/>
            </g>
            <g transform="matrix(1.586728,-0.011504,0.011504,1.586728,1301.081396,1405.547437)">
                <path d="M435.906,986.02C411.809,968.864 382.174,955.417 342.159,949.648C356.496,933.024 373.924,919.14 393.546,908.892C427.06,917.535 452.299,932.218 473.361,949.582C487.203,960.993 499.24,973.563 510.637,986.337C496.58,996.156 484.404,1007.24 473.178,1018.824C461.986,1007.158 449.877,995.966 435.906,986.02Z" style="fill:rgb(37,99,235);stroke:rgb(8,16,32);stroke-width:17.07px;"/>
            </g>
            <g transform="matrix(1.586728,-0.011504,0.011504,1.586728,1301.081396,1405.547437)">
                <path d="M549.465,1030.067C535.077,1039.52 522.649,1050.305 511.265,1061.674C498.801,1047.605 486.654,1032.872 473.178,1018.824C484.404,1007.24 496.58,996.156 510.637,986.337C523.837,1001.133 536.177,1016.203 549.465,1030.067Z" style="fill:rgb(0,135,247);stroke:rgb(8,16,32);stroke-width:17.07px;"/>
            </g>
            <g transform="matrix(1.586728,-0.011504,0.011504,1.586728,1301.081396,1405.547437)">
                <path d="M547.996,1097.961C534.609,1087.149 522.801,1074.696 511.265,1061.674C522.649,1050.305 535.077,1039.52 549.465,1030.067C561.476,1042.599 574.262,1054.146 589.158,1063.612C605.19,1073.8 623.664,1081.579 646.247,1085.585C644.078,1102.344 639.519,1118.357 632.923,1133.271C596.422,1129.156 570.064,1115.787 547.996,1097.961Z" style="fill:rgb(0,193,207);stroke:rgb(8,16,32);stroke-width:17.07px;"/>
            </g>
            <g transform="matrix(1.586728,-0.011504,0.011504,1.586728,1301.081396,1405.547437)">
                <path d="M435.051,1061.591C447.472,1047.502 459.635,1032.799 473.178,1018.824C486.654,1032.872 498.801,1047.605 511.265,1061.674C497.565,1075.357 485.378,1089.886 473.114,1103.956C460.827,1089.901 448.672,1075.343 435.051,1061.591Z" style="fill:rgb(0,193,207);stroke:rgb(8,16,32);stroke-width:17.07px;"/>
            </g>
            <g transform="matrix(1.586728,-0.011504,0.011504,1.586728,1301.081396,1405.547437)">
                <path d="M509.361,1141.102C496.283,1129.884 484.64,1117.141 473.114,1103.956C485.378,1089.886 497.565,1075.357 511.265,1061.674C522.801,1074.696 534.609,1087.149 547.996,1097.961C534.198,1111.999 521.882,1126.84 509.361,1141.102Z" style="fill:rgb(111,77,216);stroke:rgb(8,16,32);stroke-width:17.07px;"/>
            </g>
            <g transform="matrix(1.586728,-0.011504,0.011504,1.586728,1301.081396,1405.547437)">
                <path d="M473.342,1177.611C460.164,1166.731 448.492,1154.274 437.044,1141.293C450.014,1129.971 461.598,1117.166 473.114,1103.956C484.64,1117.141 496.283,1129.884 509.361,1141.102C532.96,1161.347 561.233,1176.626 601.932,1180.588C589.737,1193.875 575.503,1205.261 559.729,1214.249C522.413,1210.004 495.708,1196.078 473.342,1177.611Z" style="fill:rgb(111,77,216);stroke:rgb(8,16,32);stroke-width:17.07px;"/>
            </g>
            <g transform="matrix(1.586728,-0.011504,0.011504,1.586728,1301.081396,1405.547437)">
                <path d="M389.516,1215.125C373.529,1206.231 359.088,1194.889 346.701,1181.607C386.257,1177.018 413.864,1161.525 437.044,1141.293C448.492,1154.274 460.164,1166.731 473.342,1177.611C451.481,1196.058 425.549,1210.21 389.516,1215.125Z" style="fill:rgb(111,77,216);stroke:rgb(8,16,32);stroke-width:17.07px;"/>
            </g>
            <g transform="matrix(1.586728,-0.011504,0.011504,1.586728,1301.081396,1405.547437)">
                <path d="M559.729,1214.249C534.389,1228.689 505.073,1236.94 473.846,1236.94C443.254,1236.94 414.498,1229.022 389.516,1215.125C425.549,1210.21 451.481,1196.058 473.342,1177.611C495.708,1196.078 522.413,1210.004 559.729,1214.249Z" style="fill:rgb(58,42,150);stroke:rgb(8,16,32);stroke-width:17.07px;"/>
            </g>
            <g transform="matrix(1.586728,-0.011504,0.011504,1.586728,1301.081396,1405.547437)">
                <path d="M632.923,1133.271C625.198,1150.741 614.678,1166.702 601.932,1180.588C561.233,1176.626 532.96,1161.347 509.361,1141.102C521.882,1126.84 534.198,1111.999 547.996,1097.961C570.064,1115.787 596.422,1129.156 632.923,1133.271Z" style="fill:rgb(111,77,216);stroke:rgb(8,16,32);stroke-width:17.07px;"/>
            </g>
            <g transform="matrix(1.586728,-0.011504,0.011504,1.586728,1301.081396,1405.547437)">
                <path d="M645.924,1038.239C647.089,1046.358 647.691,1054.656 647.691,1063.095C647.691,1070.716 647.2,1078.222 646.247,1085.585C623.664,1081.579 605.19,1073.8 589.158,1063.612C605.223,1053.15 623.727,1044.35 645.924,1038.239Z" style="fill:rgb(33,70,170);stroke:rgb(8,16,32);stroke-width:17.07px;"/>
            </g>
            <g transform="matrix(1.586728,-0.011504,0.011504,1.586728,1301.081396,1405.547437)">
                <path d="M635.194,998.297C640.284,1010.945 643.929,1024.327 645.924,1038.239C623.727,1044.35 605.223,1053.15 589.158,1063.612C574.262,1054.146 561.476,1042.599 549.465,1030.067C572.042,1015.232 599.442,1003.678 635.194,998.297Z" style="fill:rgb(0,193,207);stroke:rgb(8,16,32);stroke-width:17.07px;"/>
            </g>
            <g transform="matrix(1.586728,-0.011504,0.011504,1.586728,1301.081396,1405.547437)">
                <path d="M606.326,950.574C618.351,964.715 628.155,980.804 635.194,998.297C599.442,1003.678 572.042,1015.232 549.465,1030.067C536.177,1016.203 523.837,1001.133 510.637,986.337C535.156,969.212 565.401,955.938 606.326,950.574Z" style="fill:rgb(37,99,235);stroke:rgb(8,16,32);stroke-width:17.07px;"/>
            </g>
            <g transform="matrix(1.586728,-0.011504,0.011504,1.586728,1301.081396,1405.547437)">
                <path d="M555.093,909.391C574.691,919.781 592.07,933.809 606.326,950.574C565.401,955.938 535.156,969.212 510.637,986.337C499.24,973.563 487.203,960.993 473.361,949.582C494.839,932.214 520.681,917.668 555.093,909.391Z" style="fill:rgb(37,99,235);stroke:rgb(8,16,32);stroke-width:17.07px;"/>
            </g>
            <g transform="matrix(1.586728,-0.011504,0.011504,1.586728,1301.081396,1405.547437)">
                <path d="M393.546,908.892C417.571,896.346 444.886,889.249 473.846,889.249C503.187,889.249 530.84,896.534 555.093,909.391C520.681,917.668 494.839,932.214 473.361,949.582C452.299,932.218 427.06,917.535 393.546,908.892Z" style="fill:rgb(0,91,239);stroke:rgb(8,16,32);stroke-width:17.07px;"/>
            </g>
            <g transform="matrix(1.586728,-0.011504,0.011504,1.586728,1301.081396,1405.547437)">
                <path d="M312.873,997.371C320.04,979.854 329.985,963.763 342.159,949.648C382.174,955.417 411.809,968.864 435.906,986.02C422.669,1000.756 410.357,1015.823 397.176,1029.75C374.93,1014.824 347.99,1003.08 312.873,997.371Z" style="fill:rgb(37,99,235);stroke:rgb(8,16,32);stroke-width:17.07px;"/>
            </g>
            <g transform="matrix(1.586728,-0.011504,0.011504,1.586728,1301.081396,1405.547437)">
                <path d="M301.857,1037.618C303.921,1023.59 307.663,1010.104 312.873,997.371C347.99,1003.08 374.93,1014.824 397.176,1029.75C385.266,1042.335 372.646,1053.989 357.993,1063.627C342.099,1052.987 323.809,1043.972 301.857,1037.618Z" style="fill:rgb(0,193,207);stroke:rgb(8,16,32);stroke-width:17.07px;"/>
            </g>
        </g>
    </g>
</svg>
